inDegrees=no
num_controls=7
num_derivatives=13
num_iterations=92
num_multipliers=7
num_parameters=0
num_slacks=7
num_states=26
objective=4.637036
objective_accelerations=0.640335
objective_balance=0.030493
objective_effort=0.483868
objective_height=3.398459
objective_ligament=0.083881
solver_duration=998.940303
status=Solve_Succeeded
success=true
DataType=double
version=3
OpenSimVersion=4.4-2022-07-23-0e9fedc
endheader
time	/jointset/ground_pelvis/pelvis_tilt/value	/jointset/ground_pelvis/pelvis_tx/value	/jointset/ground_pelvis/pelvis_ty/value	/jointset/hip_l/hip_flexion_l/value	/jointset/hip_l/hip_adduction_l/value	/jointset/hip_l/hip_rotation_l/value	/jointset/back/lumbar_extension/value	/jointset/patellofemoral_l/patellar_flexion_l/value	/jointset/knee_l/knee_flexion_l/value	/jointset/knee_l/knee_adduction_l/value	/jointset/knee_l/knee_rotation_l/value	/jointset/ankle_l/ankle_angle_l/value	/jointset/subtalar_l/subtalar_angle_l/value	/jointset/ground_pelvis/pelvis_tilt/speed	/jointset/ground_pelvis/pelvis_tx/speed	/jointset/ground_pelvis/pelvis_ty/speed	/jointset/hip_l/hip_flexion_l/speed	/jointset/hip_l/hip_adduction_l/speed	/jointset/hip_l/hip_rotation_l/speed	/jointset/back/lumbar_extension/speed	/jointset/patellofemoral_l/patellar_flexion_l/speed	/jointset/knee_l/knee_flexion_l/speed	/jointset/knee_l/knee_adduction_l/speed	/jointset/knee_l/knee_rotation_l/speed	/jointset/ankle_l/ankle_angle_l/speed	/jointset/subtalar_l/subtalar_angle_l/speed	/forceset/tau_hip_flexion_l	/forceset/tau_hip_adduction_l	/forceset/tau_hip_rotation_l	/forceset/tau_knee_flexion_l	/forceset/tau_ankle_angle_l	/forceset/tau_subtalar_angle_l	/forceset/tau_lumbar_extension	lambda_cid13_p0	lambda_cid13_p1	lambda_cid13_p2	lambda_cid13_p3	lambda_cid13_p4	lambda_cid13_p5	lambda_cid14_p0	/jointset/ground_pelvis/pelvis_tilt/accel	/jointset/ground_pelvis/pelvis_tx/accel	/jointset/ground_pelvis/pelvis_ty/accel	/jointset/hip_l/hip_flexion_l/accel	/jointset/hip_l/hip_adduction_l/accel	/jointset/hip_l/hip_rotation_l/accel	/jointset/back/lumbar_extension/accel	/jointset/patellofemoral_l/patellar_flexion_l/accel	/jointset/knee_l/knee_flexion_l/accel	/jointset/knee_l/knee_adduction_l/accel	/jointset/knee_l/knee_rotation_l/accel	/jointset/ankle_l/ankle_angle_l/accel	/jointset/subtalar_l/subtalar_angle_l/accel	gamma_cid13_p0	gamma_cid13_p1	gamma_cid13_p2	gamma_cid13_p3	gamma_cid13_p4	gamma_cid13_p5	gamma_cid14_p0
1.5	-0.3143109951986322	-0.04942933205496537	0.6867472542294802	1.414682536026182	-0.2489855632601444	-0.01527052454876058	-0.3815675861670915	1.158300446461014	1.158300446461195	0.0209166295608264	0.1745002701955431	0.2704831360168234	0.07304828666644679	0.2256824232581227	0.08784710369428249	0.8258150191421981	-2.559772896924749	-0.07582250725905512	-0.3981802800101221	0.5016098852898181	-2.927973257359724	-2.927973257359608	-0.5103188402534639	-0.0023431869156479	-0.7485537966269182	-0.3007216164028436	-0.2072288422984124	-0.005725680318943412	-0.009348994518628417	-0.3408536698513827	0.1344171615580058	0.02484567800098048	0.2142231507615538	5.154648834086601	-9.547054741827818	-1.331565370335464	-14.95289881230795	-614.6365241658364	-66.03345116525273	-1.643505637660875	1.544650903594099	1.190468002238533	-0.4699359207455888	-2.683530186286843	-0.1994228355756881	-1.038914415941015	2.550163624506337	-2.357718295776156	-2.357718295776155	-0.3832453395887461	-0.2317833647722233	-1.462555974197485	-0.2443168606729526	-2.570617747084052e-07	5.429688536553589e-06	4.569977665608643e-06	1.007018372224623e-06	2.785156512543067e-07	4.638348504755342e-06	-4.171114136666789e-09
1.51	-0.3119776517655251	-0.0484914073525201	0.6949798468771649	1.388953917378675	-0.249754278854241	-0.01930997309525373	-0.3764242022552973	1.128906054313856	1.128906054313908	0.01579795267533501	0.1744691726674757	0.2629251497095066	0.07002854086458239	0.2409240044662272	0.09973206587017353	0.8204949137031748	-2.585609914269905	-0.07783784456170179	-0.4097310447476286	0.5270483791553732	-2.950504047181102	-2.950504047181044	-0.5133000929199347	-0.003950399023586985	-0.7629006045682031	-0.3030665166823798	-0.2014912045703602	-0.005901420208372371	-0.008934569783630282	-0.3334752689186885	0.1347009603381883	0.02463936259315673	0.2089074237737968	5.695494018605828	-9.78610438529844	-1.026219513516632	-15.10218744021344	-606.9794828316259	-65.52471169132717	-2.602933625863966	1.504586446743441	1.186829805598915	-0.5942679997427893	-2.4826389433763	-0.1909504063521381	-1.21612074635492	2.537914576738916	-2.14062384999905	-2.140623850007607	-0.237289198552578	-0.1370577700697349	-1.399084825101839	-0.2067239607017103	-1.521853042882733e-07	5.590876033578138e-06	3.794015010955772e-06	9.53269684572943e-07	3.235816292844815e-07	4.197987510320947e-06	1.083380577471943e-07
1.52	-0.3094937575769024	-0.04743476913224914	0.7031529944416066	1.362977158270763	-0.250540820067115	-0.02346552193787574	-0.3710269889430136	1.099298381363582	1.099298381363458	0.0106531184695919	0.1744196294909318	0.2552280269985717	0.0669899165901012	0.2557925743673808	0.1115898072594225	0.8139260024937323	-2.609400989004885	-0.0793876310140607	-0.4214003392331656	0.552375765387316	-2.970629417989687	-2.970629417989686	-0.5155503043214974	-0.006032316582069548	-0.7763810773497886	-0.3044973109262498	-0.1957535668421837	-0.006077160097896919	-0.008520145048097432	-0.326096867985974	0.1349847591183303	0.02443304718519003	0.2035916967861639	6.246213562332223	-10.04485440396111	-0.6972104946644336	-15.37550124512604	-599.2125514440593	-65.06968586769905	-3.779131394774916	1.47004864220226	1.185023844911132	-0.7196970748294396	-2.274341664251509	-0.1063126655193638	-1.062620365548458	2.527942097782511	-1.876634493216976	-1.876634493216888	-0.2370370866076956	-0.3267244548784548	-1.289288942256059	-0.06149565354067404	-5.254425749117509e-08	5.777332427276174e-06	3.108523795454662e-06	8.966110077964786e-07	3.80441632676944e-07	3.854901945512912e-06	2.098074656295943e-07
1.53	-0.3068630607271872	-0.04625978565163413	0.7112542897672918	1.336772677510822	-0.2513409744824234	-0.02773704694233685	-0.3653776971015499	1.06950170363537	1.069501703635403	0.005487367589616957	0.1743472649362536	0.2474005233171305	0.06394089017764806	0.2702680288969501	0.1233903741256658	0.8061285658481697	-2.631125189258228	-0.0805771044657871	-0.4328491952645143	0.5774163688080179	-2.98826909212714	-2.988269092127116	-0.5175678180915463	-0.008516409655513051	-0.7889570725252691	-0.3051768509881156	-0.1893584835019358	-0.007012850577264824	-0.008226458595599463	-0.3194942687046093	0.1356379555533353	0.02440783592150991	0.1977087948998213	6.912481858202662	-10.42940720439213	-0.317394002533976	-15.58746824143384	-591.5002916512065	-64.97532811966205	-5.172962406249778	1.424509747581077	1.175256874313323	-0.8403440823158448	-2.065931144663657	-0.1160167908764222	-1.177231643562404	2.482184345779897	-1.642148062706516	-1.642148062703135	-0.1783813760005491	-0.2211048420847496	-1.217120836758028	-0.05274496989519648	4.153415170644982e-08	5.99063702368979e-06	2.519158484052297e-06	8.368604675749304e-07	4.498327880168368e-07	3.615171524682884e-06	2.995471242604421e-07
1.54	-0.3040899661543522	-0.04496725974899077	0.7192714953019426	1.31036206036059	-0.2521511740534212	-0.03212130319143881	-0.3594799862495642	1.039541726328119	1.039541726328188	0.0003025870012472547	0.1742476888289337	0.2394521864776193	0.06088875600709928	0.2842721189964533	0.1350982916650937	0.7971080442869374	-2.650628267063058	-0.08139666215261816	-0.4439465881612625	0.602059567491405	-3.003289333812463	-3.003289333812418	-0.5193562460134977	-0.01147462706922997	-0.8005477089632909	-0.3051188625454108	-0.1829634001615509	-0.00794854105661557	-0.007932772142577175	-0.3128916694232247	0.1362911519883227	0.02438262465781218	0.1918258930136096	7.591360351437769	-10.83411687334479	0.08613374055197745	-15.93234997307971	-583.6258671598181	-64.9488894724125	-6.786686730759993	1.375775756187459	1.166493979549126	-0.9643140579633737	-1.830117174548483	-0.03232951254116458	-0.9923277386294216	2.448461150318169	-1.352748002790509	-1.352748002790578	-0.1912199169886868	-0.4215493229311912	-1.09221719476269	0.08601004737282292	-4.92290014181141e-08	6.203149076597002e-06	3.459866378302549e-06	9.512223008126155e-07	3.49734866699295e-07	3.628629396220733e-06	2.47843820594035e-07
